<?xml version="1.0" standalone="no"?>
<!DOCTYPE svg PUBLIC "-//W3C//DTD SVG 20010904//EN"
 "http://www.w3.org/TR/2001/REC-SVG-20010904/DTD/svg10.dtd">
<svg version="1.0" xmlns="http://www.w3.org/2000/svg"
 width="405.000000pt" height="405.000000pt" viewBox="0 0 405.000000 405.000000"
 preserveAspectRatio="xMidYMid meet">
<metadata>
Created by Awesomium Team LLC
</metadata>
<g transform="translate(0.000000,405.000000) scale(0.100000,-0.100000)"
fill="#000000" stroke="none">
<path d="M1859 4045 c-2 -1 -35 -6 -74 -9 -112 -11 -186 -22 -250 -40 -11 -3
-45 -12 -75 -19 -30 -8 -72 -22 -92 -31 -21 -9 -40 -16 -43 -16 -3 0 -6 0 -7
-1 -2 0 -12 -2 -23 -4 -11 -2 -21 -9 -23 -14 -2 -6 -11 -11 -21 -11 -9 0 -34
-9 -56 -20 -22 -11 -44 -20 -51 -20 -6 0 -17 -6 -23 -14 -7 -8 -23 -17 -36
-20 -14 -4 -41 -18 -62 -31 -21 -14 -45 -30 -53 -35 -174 -109 -241 -163 -379
-300 -111 -111 -131 -133 -171 -190 -13 -19 -30 -39 -37 -43 -7 -4 -13 -11
-13 -16 0 -4 -24 -43 -52 -87 -80 -122 -174 -318 -218 -454 -50 -154 -66 -227
-86 -390 -12 -98 -11 -399 2 -504 18 -146 20 -156 49 -266 205 -761 819 -1331
1590 -1476 116 -22 201 -29 370 -29 248 0 412 25 630 96 681 223 1210 812
1351 1504 2 11 6 31 9 45 23 107 29 193 30 380 0 96 -4 202 -8 235 -62 463
-257 863 -577 1186 -163 165 -317 277 -522 382 -92 48 -135 66 -285 121 -72
27 -235 64 -308 71 -38 4 -74 10 -80 13 -10 6 -400 13 -406 7z m331 -79 c597
-50 1138 -376 1473 -886 60 -92 167 -309 201 -410 43 -128 80 -278 92 -380 3
-25 7 -63 10 -85 7 -60 7 -324 -1 -375 -6 -48 -32 -200 -39 -237 -11 -55 -51
-184 -79 -257 -180 -472 -535 -856 -992 -1071 -147 -70 -326 -130 -445 -150
-19 -3 -42 -8 -50 -10 -19 -5 -84 -14 -146 -20 -66 -7 -330 -7 -374 -1 -19 3
-69 10 -110 16 -265 37 -554 150 -790 309 -126 84 -185 133 -312 263 -356 362
-549 839 -550 1357 0 69 3 149 6 176 4 28 9 70 12 95 21 166 88 388 168 555
195 408 507 723 911 921 221 108 452 172 683 190 43 3 78 7 79 8 4 3 185 -2
253 -8z"/>
<path d="M877 3182 c-108 -108 -197 -202 -197 -207 0 -5 216 -226 480 -490
l480 -480 -460 -460 c-253 -253 -460 -464 -460 -470 0 -13 382 -395 395 -395
5 0 217 207 470 460 l460 460 455 -455 c250 -250 459 -455 465 -455 13 0 395
382 395 395 0 6 -205 215 -455 465 l-455 455 475 475 c261 261 475 480 475
485 0 6 -89 99 -198 208 l-197 197 -480 -480 -480 -480 -485 485 -485 485
-198 -198z m418 -97 c0 -19 -8 -20 -152 -23 l-152 -3 -3 -152 c-3 -144 -4
-152 -23 -152 -19 0 -20 8 -23 178 l-2 177 177 -2 c170 -3 178 -4 178 -23z
m1843 -162 c-3 -170 -4 -178 -23 -178 -19 0 -20 8 -23 153 l-3 152 -154 0
c-154 0 -173 4 -161 35 4 12 37 15 186 15 l180 0 -2 -177z m-40 -1786 l2 -177
-177 2 c-170 3 -178 4 -178 23 0 19 8 20 153 23 l152 3 0 148 c0 81 3 151 7
155 4 4 14 5 23 4 13 -3 15 -30 18 -181z m-2060 6 l3 -152 147 -3 c139 -3 147
-4 147 -23 0 -19 -8 -20 -177 -23 l-178 -2 0 173 c0 96 3 177 7 181 4 4 16 6
28 4 19 -3 20 -11 23 -155z"/>
<path d="M3275 2397 c-93 -31 -149 -78 -193 -162 -22 -42 -26 -63 -26 -135 -1
-73 3 -92 26 -135 33 -62 99 -125 158 -151 67 -29 190 -26 253 6 107 54 169
151 173 270 2 64 -1 84 -25 135 -34 74 -79 120 -150 153 -64 30 -158 38 -216
19z"/>
<path d="M600 2330 c-80 -22 -159 -89 -201 -170 -19 -37 -23 -61 -23 -130 0
-72 4 -92 26 -135 57 -108 164 -175 279 -175 108 0 225 73 277 175 36 70 37
186 3 263 -59 132 -222 210 -361 172z"/>
</g>
</svg>
